<mxfile host="app.diagrams.net" agent="Mozilla/5.0 (Windows NT 10.0; Win64; x64) AppleWebKit/537.36 (KHTML, like Gecko) Chrome/136.0.0.0 Safari/537.36" version="27.0.9">
  <diagram name="Σελίδα-1" id="7oBfDX5FwFMpyz-Z6l8m">
    <mxGraphModel dx="1983" dy="641" grid="1" gridSize="10" guides="1" tooltips="1" connect="1" arrows="1" fold="1" page="0" pageScale="1" pageWidth="827" pageHeight="1169" math="0" shadow="0">
      <root>
        <mxCell id="0" />
        <mxCell id="1" parent="0" />
        <mxCell id="ysZwTv5DuzGZ6eScnHrB-1" value="Tenant" style="shape=umlActor;verticalLabelPosition=bottom;verticalAlign=top;html=1;outlineConnect=0;" parent="1" vertex="1">
          <mxGeometry x="-500" y="170" width="30" height="60" as="geometry" />
        </mxCell>
        <mxCell id="ysZwTv5DuzGZ6eScnHrB-6" value="Lost &amp;amp; Found" style="ellipse;whiteSpace=wrap;html=1;" parent="1" vertex="1">
          <mxGeometry x="-505" y="90" width="130" height="60" as="geometry" />
        </mxCell>
        <mxCell id="ysZwTv5DuzGZ6eScnHrB-11" value="Tenant Home Screen" style="text;html=1;align=center;verticalAlign=middle;whiteSpace=wrap;rounded=0;" parent="1" vertex="1">
          <mxGeometry x="-235" y="120" width="130" height="30" as="geometry" />
        </mxCell>
        <mxCell id="ysZwTv5DuzGZ6eScnHrB-13" value="Display" style="ellipse;shape=umlControl;whiteSpace=wrap;html=1;" parent="1" vertex="1">
          <mxGeometry x="320" y="135" width="70" height="80" as="geometry" />
        </mxCell>
        <mxCell id="ysZwTv5DuzGZ6eScnHrB-16" value="" style="shape=umlBoundary;whiteSpace=wrap;html=1;" parent="1" vertex="1">
          <mxGeometry x="-240" y="330" width="100" height="80" as="geometry" />
        </mxCell>
        <mxCell id="ysZwTv5DuzGZ6eScnHrB-17" value="Tenant Lost &amp;amp; Found Screen" style="text;html=1;align=center;verticalAlign=middle;whiteSpace=wrap;rounded=0;" parent="1" vertex="1">
          <mxGeometry x="-250" y="300" width="130" height="30" as="geometry" />
        </mxCell>
        <mxCell id="ysZwTv5DuzGZ6eScnHrB-23" value="" style="endArrow=none;html=1;rounded=0;entryX=0.004;entryY=0.509;entryDx=0;entryDy=0;entryPerimeter=0;exitX=1;exitY=0.3333333333333333;exitDx=0;exitDy=0;exitPerimeter=0;" parent="1" source="ysZwTv5DuzGZ6eScnHrB-1" target="ysZwTv5DuzGZ6eScnHrB-16" edge="1">
          <mxGeometry width="50" height="50" relative="1" as="geometry">
            <mxPoint x="-320" y="300" as="sourcePoint" />
            <mxPoint x="-270" y="250" as="targetPoint" />
          </mxGeometry>
        </mxCell>
        <mxCell id="ysZwTv5DuzGZ6eScnHrB-25" value="" style="shape=umlBoundary;whiteSpace=wrap;html=1;" parent="1" vertex="1">
          <mxGeometry x="-230" y="150" width="100" height="80" as="geometry" />
        </mxCell>
        <mxCell id="ysZwTv5DuzGZ6eScnHrB-27" value="Display" style="ellipse;shape=umlControl;whiteSpace=wrap;html=1;" parent="1" vertex="1">
          <mxGeometry x="50" y="410" width="70" height="80" as="geometry" />
        </mxCell>
        <mxCell id="ysZwTv5DuzGZ6eScnHrB-37" value="" style="shape=umlBoundary;whiteSpace=wrap;html=1;" parent="1" vertex="1">
          <mxGeometry x="-240" y="520" width="100" height="80" as="geometry" />
        </mxCell>
        <mxCell id="ysZwTv5DuzGZ6eScnHrB-39" value="Tenant Lost &amp;amp; Found&amp;nbsp;&lt;div&gt;Entry Screen&lt;/div&gt;" style="text;html=1;align=center;verticalAlign=middle;resizable=0;points=[];autosize=1;strokeColor=none;fillColor=none;" parent="1" vertex="1">
          <mxGeometry x="-250" y="480" width="140" height="40" as="geometry" />
        </mxCell>
        <mxCell id="ysZwTv5DuzGZ6eScnHrB-47" value="Submit" style="ellipse;shape=umlControl;whiteSpace=wrap;html=1;" parent="1" vertex="1">
          <mxGeometry x="10" y="660" width="70" height="80" as="geometry" />
        </mxCell>
        <mxCell id="ysZwTv5DuzGZ6eScnHrB-50" value="Check Data" style="ellipse;shape=umlControl;whiteSpace=wrap;html=1;" parent="1" vertex="1">
          <mxGeometry x="210" y="660" width="70" height="80" as="geometry" />
        </mxCell>
        <mxCell id="ysZwTv5DuzGZ6eScnHrB-53" value="Update" style="ellipse;shape=umlControl;whiteSpace=wrap;html=1;" parent="1" vertex="1">
          <mxGeometry x="420" y="660" width="70" height="80" as="geometry" />
        </mxCell>
        <mxCell id="ysZwTv5DuzGZ6eScnHrB-55" value="Correct" style="text;html=1;align=center;verticalAlign=middle;resizable=0;points=[];autosize=1;strokeColor=none;fillColor=none;" parent="1" vertex="1">
          <mxGeometry x="320" y="685" width="60" height="30" as="geometry" />
        </mxCell>
        <mxCell id="ysZwTv5DuzGZ6eScnHrB-56" value="Lost &amp;amp; Found List" style="ellipse;shape=umlEntity;whiteSpace=wrap;html=1;" parent="1" vertex="1">
          <mxGeometry x="480" y="460" width="90" height="80" as="geometry" />
        </mxCell>
        <mxCell id="ysZwTv5DuzGZ6eScnHrB-61" value="Error Message" style="ellipse;shape=umlControl;whiteSpace=wrap;html=1;strokeColor=#FF0C00;" parent="1" vertex="1">
          <mxGeometry x="210" y="830" width="70" height="80" as="geometry" />
        </mxCell>
        <mxCell id="SvvaTaBr_l--qllIjWLA-17" value="" style="endArrow=none;html=1;rounded=0;exitX=1;exitY=0.3333333333333333;exitDx=0;exitDy=0;exitPerimeter=0;" parent="1" source="ysZwTv5DuzGZ6eScnHrB-1" edge="1">
          <mxGeometry width="50" height="50" relative="1" as="geometry">
            <mxPoint x="-340" y="420" as="sourcePoint" />
            <mxPoint x="-240" y="560" as="targetPoint" />
          </mxGeometry>
        </mxCell>
        <mxCell id="SvvaTaBr_l--qllIjWLA-18" value="Fill the Form and Select Submit" style="text;html=1;align=center;verticalAlign=middle;whiteSpace=wrap;rounded=0;rotation=60;" parent="1" vertex="1">
          <mxGeometry x="-458.75" y="370" width="238.75" height="30" as="geometry" />
        </mxCell>
        <mxCell id="SvvaTaBr_l--qllIjWLA-19" value="Select New Entry" style="text;html=1;align=center;verticalAlign=middle;resizable=0;points=[];autosize=1;strokeColor=none;fillColor=none;rotation=35;" parent="1" vertex="1">
          <mxGeometry x="-410.00463040518366" y="260.00367542170784" width="120" height="30" as="geometry" />
        </mxCell>
        <mxCell id="SvvaTaBr_l--qllIjWLA-20" value="" style="endArrow=none;html=1;rounded=0;entryX=0.005;entryY=0.501;entryDx=0;entryDy=0;entryPerimeter=0;exitX=1;exitY=0.3333333333333333;exitDx=0;exitDy=0;exitPerimeter=0;" parent="1" source="ysZwTv5DuzGZ6eScnHrB-1" target="ysZwTv5DuzGZ6eScnHrB-25" edge="1">
          <mxGeometry width="50" height="50" relative="1" as="geometry">
            <mxPoint x="-335" y="190" as="sourcePoint" />
            <mxPoint x="-285" y="140" as="targetPoint" />
          </mxGeometry>
        </mxCell>
        <mxCell id="SvvaTaBr_l--qllIjWLA-21" value="Select Lost &amp;amp; Found" style="text;html=1;align=center;verticalAlign=middle;whiteSpace=wrap;rounded=0;" parent="1" vertex="1">
          <mxGeometry x="-410" y="170" width="130" height="30" as="geometry" />
        </mxCell>
        <mxCell id="SvvaTaBr_l--qllIjWLA-22" value="" style="endArrow=none;html=1;rounded=0;entryX=1;entryY=0.3333333333333333;entryDx=0;entryDy=0;entryPerimeter=0;exitX=-0.001;exitY=0.541;exitDx=0;exitDy=0;exitPerimeter=0;" parent="1" source="SvvaTaBr_l--qllIjWLA-23" target="ysZwTv5DuzGZ6eScnHrB-1" edge="1">
          <mxGeometry width="50" height="50" relative="1" as="geometry">
            <mxPoint x="-221" y="1010" as="sourcePoint" />
            <mxPoint x="-375" y="758" as="targetPoint" />
          </mxGeometry>
        </mxCell>
        <mxCell id="SvvaTaBr_l--qllIjWLA-23" value="" style="shape=umlBoundary;whiteSpace=wrap;html=1;" parent="1" vertex="1">
          <mxGeometry x="-220" y="970" width="100" height="80" as="geometry" />
        </mxCell>
        <mxCell id="SvvaTaBr_l--qllIjWLA-24" value="Tenant Notification&lt;div&gt;Screen&lt;/div&gt;" style="text;html=1;align=center;verticalAlign=middle;resizable=0;points=[];autosize=1;strokeColor=none;fillColor=none;" parent="1" vertex="1">
          <mxGeometry x="-220" y="935" width="120" height="40" as="geometry" />
        </mxCell>
        <mxCell id="SvvaTaBr_l--qllIjWLA-39" value="Notification List" style="ellipse;shape=umlEntity;whiteSpace=wrap;html=1;" parent="1" vertex="1">
          <mxGeometry x="430" y="1120" width="90" height="80" as="geometry" />
        </mxCell>
        <mxCell id="SvvaTaBr_l--qllIjWLA-41" value="Display" style="ellipse;shape=umlControl;whiteSpace=wrap;html=1;" parent="1" vertex="1">
          <mxGeometry x="30" y="970" width="70" height="80" as="geometry" />
        </mxCell>
        <mxCell id="SvvaTaBr_l--qllIjWLA-42" value="Load" style="ellipse;shape=umlControl;whiteSpace=wrap;html=1;" parent="1" vertex="1">
          <mxGeometry x="240" y="970" width="70" height="80" as="geometry" />
        </mxCell>
        <mxCell id="SvvaTaBr_l--qllIjWLA-48" value="Select NotifIcation" style="text;html=1;align=center;verticalAlign=middle;resizable=0;points=[];autosize=1;strokeColor=none;fillColor=none;rotation=75;" parent="1" vertex="1">
          <mxGeometry x="-380" y="630" width="120" height="30" as="geometry" />
        </mxCell>
        <mxCell id="SvvaTaBr_l--qllIjWLA-50" value="Create&lt;br&gt;Announcment" style="ellipse;shape=umlControl;whiteSpace=wrap;html=1;" parent="1" vertex="1">
          <mxGeometry x="420" y="790" width="90" height="80" as="geometry" />
        </mxCell>
        <mxCell id="SvvaTaBr_l--qllIjWLA-53" value="Update" style="ellipse;shape=umlControl;whiteSpace=wrap;html=1;" parent="1" vertex="1">
          <mxGeometry x="430" y="970" width="70" height="80" as="geometry" />
        </mxCell>
        <mxCell id="SvvaTaBr_l--qllIjWLA-57" value="Load" style="ellipse;shape=umlControl;whiteSpace=wrap;html=1;" parent="1" vertex="1">
          <mxGeometry x="40" y="150" width="70" height="80" as="geometry" />
        </mxCell>
        <mxCell id="SvvaTaBr_l--qllIjWLA-62" value="" style="endArrow=none;html=1;rounded=0;entryX=0.5;entryY=0;entryDx=0;entryDy=0;" parent="1" target="ysZwTv5DuzGZ6eScnHrB-56" edge="1">
          <mxGeometry width="50" height="50" relative="1" as="geometry">
            <mxPoint x="70" y="160" as="sourcePoint" />
            <mxPoint x="350" y="403.23" as="targetPoint" />
            <Array as="points">
              <mxPoint x="70" y="120" />
              <mxPoint x="70" y="80" />
              <mxPoint x="525" y="80" />
            </Array>
          </mxGeometry>
        </mxCell>
        <mxCell id="ZBD4hsqRX-86bFj7mwJe-1" value="Wrong" style="text;html=1;align=center;verticalAlign=middle;resizable=0;points=[];autosize=1;strokeColor=none;fillColor=none;rotation=90;" parent="1" vertex="1">
          <mxGeometry x="230" y="770" width="60" height="30" as="geometry" />
        </mxCell>
        <mxCell id="ZBD4hsqRX-86bFj7mwJe-6" value="" style="endArrow=none;html=1;rounded=0;exitX=1.012;exitY=0.525;exitDx=0;exitDy=0;exitPerimeter=0;" parent="1" source="SvvaTaBr_l--qllIjWLA-23" edge="1">
          <mxGeometry width="50" height="50" relative="1" as="geometry">
            <mxPoint x="50" y="1210" as="sourcePoint" />
            <mxPoint x="29" y="1012" as="targetPoint" />
          </mxGeometry>
        </mxCell>
        <mxCell id="ZBD4hsqRX-86bFj7mwJe-7" value="" style="endArrow=none;html=1;rounded=0;exitX=1.029;exitY=0.546;exitDx=0;exitDy=0;exitPerimeter=0;entryX=-0.007;entryY=0.546;entryDx=0;entryDy=0;entryPerimeter=0;" parent="1" source="SvvaTaBr_l--qllIjWLA-41" target="SvvaTaBr_l--qllIjWLA-42" edge="1">
          <mxGeometry width="50" height="50" relative="1" as="geometry">
            <mxPoint x="100" y="1130" as="sourcePoint" />
            <mxPoint x="284" y="1130" as="targetPoint" />
          </mxGeometry>
        </mxCell>
        <mxCell id="ZBD4hsqRX-86bFj7mwJe-8" value="" style="endArrow=none;html=1;rounded=0;exitX=1.029;exitY=0.598;exitDx=0;exitDy=0;exitPerimeter=0;entryX=-0.031;entryY=0.608;entryDx=0;entryDy=0;entryPerimeter=0;" parent="1" source="SvvaTaBr_l--qllIjWLA-42" target="SvvaTaBr_l--qllIjWLA-53" edge="1">
          <mxGeometry width="50" height="50" relative="1" as="geometry">
            <mxPoint x="220" y="1090" as="sourcePoint" />
            <mxPoint x="404" y="1090" as="targetPoint" />
          </mxGeometry>
        </mxCell>
        <mxCell id="ZBD4hsqRX-86bFj7mwJe-9" value="" style="endArrow=none;html=1;rounded=0;entryX=0.5;entryY=0;entryDx=0;entryDy=0;" parent="1" target="SvvaTaBr_l--qllIjWLA-39" edge="1">
          <mxGeometry width="50" height="50" relative="1" as="geometry">
            <mxPoint x="475" y="1050" as="sourcePoint" />
            <mxPoint x="475" y="1110" as="targetPoint" />
          </mxGeometry>
        </mxCell>
        <mxCell id="ZBD4hsqRX-86bFj7mwJe-10" value="" style="endArrow=none;html=1;rounded=0;exitX=0.485;exitY=1.015;exitDx=0;exitDy=0;exitPerimeter=0;" parent="1" source="SvvaTaBr_l--qllIjWLA-50" edge="1">
          <mxGeometry width="50" height="50" relative="1" as="geometry">
            <mxPoint x="560" y="930" as="sourcePoint" />
            <mxPoint x="464" y="980" as="targetPoint" />
          </mxGeometry>
        </mxCell>
        <mxCell id="ZBD4hsqRX-86bFj7mwJe-11" value="" style="endArrow=none;html=1;rounded=0;exitX=0.993;exitY=0.588;exitDx=0;exitDy=0;exitPerimeter=0;entryX=-0.019;entryY=0.598;entryDx=0;entryDy=0;entryPerimeter=0;" parent="1" source="ysZwTv5DuzGZ6eScnHrB-50" target="ysZwTv5DuzGZ6eScnHrB-53" edge="1">
          <mxGeometry width="50" height="50" relative="1" as="geometry">
            <mxPoint x="320" y="780" as="sourcePoint" />
            <mxPoint x="504" y="780" as="targetPoint" />
          </mxGeometry>
        </mxCell>
        <mxCell id="ZBD4hsqRX-86bFj7mwJe-12" value="" style="endArrow=none;html=1;rounded=0;exitX=1.017;exitY=0.608;exitDx=0;exitDy=0;exitPerimeter=0;entryX=0.005;entryY=0.588;entryDx=0;entryDy=0;entryPerimeter=0;" parent="1" source="ysZwTv5DuzGZ6eScnHrB-47" target="ysZwTv5DuzGZ6eScnHrB-50" edge="1">
          <mxGeometry width="50" height="50" relative="1" as="geometry">
            <mxPoint x="90" y="730" as="sourcePoint" />
            <mxPoint x="209" y="710" as="targetPoint" />
          </mxGeometry>
        </mxCell>
        <mxCell id="ZBD4hsqRX-86bFj7mwJe-13" value="" style="endArrow=none;html=1;rounded=0;entryX=0.493;entryY=0.119;entryDx=0;entryDy=0;entryPerimeter=0;strokeColor=#FF0C00;" parent="1" target="ysZwTv5DuzGZ6eScnHrB-61" edge="1">
          <mxGeometry width="50" height="50" relative="1" as="geometry">
            <mxPoint x="245" y="740" as="sourcePoint" />
            <mxPoint x="494" y="770" as="targetPoint" />
          </mxGeometry>
        </mxCell>
        <mxCell id="ZBD4hsqRX-86bFj7mwJe-15" value="" style="endArrow=none;html=1;rounded=0;exitX=0.54;exitY=1.015;exitDx=0;exitDy=0;exitPerimeter=0;entryX=0.43;entryY=0.098;entryDx=0;entryDy=0;entryPerimeter=0;" parent="1" source="ysZwTv5DuzGZ6eScnHrB-53" target="SvvaTaBr_l--qllIjWLA-50" edge="1">
          <mxGeometry width="50" height="50" relative="1" as="geometry">
            <mxPoint x="570" y="750" as="sourcePoint" />
            <mxPoint x="754" y="750" as="targetPoint" />
          </mxGeometry>
        </mxCell>
        <mxCell id="ZBD4hsqRX-86bFj7mwJe-16" value="" style="endArrow=none;html=1;rounded=0;exitX=0.576;exitY=0.119;exitDx=0;exitDy=0;exitPerimeter=0;entryX=0.5;entryY=1;entryDx=0;entryDy=0;" parent="1" source="ysZwTv5DuzGZ6eScnHrB-53" target="ysZwTv5DuzGZ6eScnHrB-56" edge="1">
          <mxGeometry width="50" height="50" relative="1" as="geometry">
            <mxPoint x="450" y="620" as="sourcePoint" />
            <mxPoint x="634" y="620" as="targetPoint" />
          </mxGeometry>
        </mxCell>
        <mxCell id="ZBD4hsqRX-86bFj7mwJe-17" value="" style="endArrow=none;html=1;rounded=0;entryX=0.421;entryY=1.004;entryDx=0;entryDy=0;entryPerimeter=0;exitX=0.987;exitY=0.535;exitDx=0;exitDy=0;exitPerimeter=0;" parent="1" source="ysZwTv5DuzGZ6eScnHrB-16" target="ysZwTv5DuzGZ6eScnHrB-13" edge="1">
          <mxGeometry width="50" height="50" relative="1" as="geometry">
            <mxPoint x="-136" y="368" as="sourcePoint" />
            <mxPoint x="214" y="280" as="targetPoint" />
          </mxGeometry>
        </mxCell>
        <mxCell id="ZBD4hsqRX-86bFj7mwJe-18" value="" style="endArrow=none;html=1;rounded=0;" parent="1" edge="1">
          <mxGeometry width="50" height="50" relative="1" as="geometry">
            <mxPoint x="110" y="190" as="sourcePoint" />
            <mxPoint x="320" y="190" as="targetPoint" />
          </mxGeometry>
        </mxCell>
        <mxCell id="ZBD4hsqRX-86bFj7mwJe-19" value="" style="endArrow=none;html=1;rounded=0;entryX=-0.007;entryY=0.535;entryDx=0;entryDy=0;entryPerimeter=0;" parent="1" target="SvvaTaBr_l--qllIjWLA-57" edge="1">
          <mxGeometry width="50" height="50" relative="1" as="geometry">
            <mxPoint x="-130" y="193" as="sourcePoint" />
            <mxPoint x="144" y="190" as="targetPoint" />
          </mxGeometry>
        </mxCell>
        <mxCell id="ZBD4hsqRX-86bFj7mwJe-23" value="" style="endArrow=none;html=1;rounded=0;entryX=0;entryY=0.55;entryDx=0;entryDy=0;entryPerimeter=0;exitX=0.8;exitY=0.913;exitDx=0;exitDy=0;exitPerimeter=0;" parent="1" source="ysZwTv5DuzGZ6eScnHrB-16" target="ysZwTv5DuzGZ6eScnHrB-27" edge="1">
          <mxGeometry width="50" height="50" relative="1" as="geometry">
            <mxPoint x="-90" y="440" as="sourcePoint" />
            <mxPoint x="400" y="282" as="targetPoint" />
          </mxGeometry>
        </mxCell>
        <mxCell id="ZBD4hsqRX-86bFj7mwJe-24" value="" style="endArrow=none;html=1;rounded=0;entryX=0.3;entryY=0.95;entryDx=0;entryDy=0;entryPerimeter=0;" parent="1" target="ysZwTv5DuzGZ6eScnHrB-27" edge="1">
          <mxGeometry width="50" height="50" relative="1" as="geometry">
            <mxPoint x="-140" y="555" as="sourcePoint" />
            <mxPoint x="410" y="362" as="targetPoint" />
          </mxGeometry>
        </mxCell>
        <mxCell id="ZBD4hsqRX-86bFj7mwJe-25" value="" style="endArrow=none;html=1;rounded=0;entryX=0.014;entryY=0.588;entryDx=0;entryDy=0;entryPerimeter=0;exitX=0.68;exitY=0.988;exitDx=0;exitDy=0;exitPerimeter=0;" parent="1" source="ysZwTv5DuzGZ6eScnHrB-37" target="ysZwTv5DuzGZ6eScnHrB-47" edge="1">
          <mxGeometry width="50" height="50" relative="1" as="geometry">
            <mxPoint x="-270" y="630" as="sourcePoint" />
            <mxPoint x="220" y="472" as="targetPoint" />
          </mxGeometry>
        </mxCell>
        <mxCell id="ZBD4hsqRX-86bFj7mwJe-26" value="" style="endArrow=none;html=1;rounded=0;entryX=0;entryY=0.5;entryDx=0;entryDy=0;exitX=0.671;exitY=0.975;exitDx=0;exitDy=0;exitPerimeter=0;" parent="1" source="SvvaTaBr_l--qllIjWLA-42" target="SvvaTaBr_l--qllIjWLA-39" edge="1">
          <mxGeometry width="50" height="50" relative="1" as="geometry">
            <mxPoint x="280" y="1080" as="sourcePoint" />
            <mxPoint x="770" y="922" as="targetPoint" />
          </mxGeometry>
        </mxCell>
      </root>
    </mxGraphModel>
  </diagram>
</mxfile>
